<svg width="148" height="47" viewBox="0 0 148 47" fill="none" xmlns="http://www.w3.org/2000/svg">
<g clip-path="url(#clip0_2183_4194)">
<path d="M31.295 15.78C27.007 20.0628 27.007 27.0108 31.295 31.2935C27.007 27.0108 20.0505 27.0108 15.7625 31.2935C20.0505 27.0108 20.0505 20.0628 15.7625 15.78C20.0505 20.0628 27.007 20.0628 31.295 15.78Z" fill="#15ABFF"/>
<path d="M23.5011 0.202148C17.2348 0.202148 11.5481 2.67438 7.35215 6.69061C7.13131 6.90199 6.91047 7.12256 6.69883 7.34313C2.65929 11.5248 0.16563 17.2229 0.16563 23.5H0.193235C0.193235 29.7679 2.66849 35.4476 6.69883 39.6384L9.8182 36.5136C11.723 34.6112 12.3211 31.7162 11.1709 29.2808C10.3427 27.5254 9.87341 25.5678 9.87341 23.5H9.84581C9.84581 19.8881 11.2629 16.6163 13.5541 14.1808C13.7657 13.9603 13.9774 13.7397 14.2074 13.5283C16.6459 11.2583 19.9033 9.86132 23.5011 9.86132C25.5807 9.86132 27.5407 10.33 29.2982 11.1572C31.7366 12.306 34.6444 11.7086 36.5399 9.80618L39.6593 6.69061C35.4633 2.67438 29.7767 0.202148 23.5011 0.202148Z" fill="#005AA9"/>
<path d="M46.8366 23.5C46.8366 17.2229 44.3522 11.534 40.3126 7.34314L37.1932 10.4587C35.2885 12.3611 34.6904 15.2653 35.8406 17.6916C36.6779 19.447 37.1472 21.4137 37.1472 23.4908H37.1748C37.1748 27.0934 35.767 30.356 33.485 32.7915C33.2733 33.0121 33.0617 33.2327 32.8316 33.444C30.3932 35.7233 27.1266 37.1294 23.5195 37.1294C21.4399 37.1294 19.4708 36.6607 17.7041 35.8244C15.2656 34.6664 12.3579 35.2729 10.4531 37.1754L7.34295 40.2817C11.5389 44.3164 17.2348 46.7978 23.5195 46.7978C29.8043 46.7978 35.4909 44.3164 39.6777 40.2909C39.8985 40.0796 40.1194 39.859 40.331 39.6384C44.3706 35.4476 46.855 29.7587 46.855 23.4908H46.8274L46.8366 23.5Z" fill="#21CCC3"/>
<path d="M40.1746 6.22194L46.3857 0C46.6066 0.211381 46.8274 0.431952 47.039 0.652523L40.8279 6.87446C40.6163 6.65389 40.4046 6.43332 40.1746 6.22194Z" fill="#005AA9"/>
<path d="M0 46.3567L6.21114 40.1348C6.43198 40.3461 6.65282 40.5667 6.86446 40.7873L0.65332 47C0.441681 46.7795 0.230042 46.5589 0 46.3475V46.3567Z" fill="#21CCC3"/>
<path d="M118.969 29.0786L115.5 38.9584H113.871L110.319 29.0786H112.288L114.671 36.0266L117.018 29.0786H118.959H118.969Z" fill="#21CCC3"/>
<path d="M121.83 30.788H120.027V28.9867H121.83V30.788ZM121.803 38.9583H120.045V31.992H121.803V38.9583Z" fill="#21CCC3"/>
<path d="M131.603 30.788H129.799V28.9867H131.603V30.788ZM131.575 38.9583H129.817V31.992H131.575V38.9583Z" fill="#21CCC3"/>
<path d="M148 38.9583H146.261V34.8042C146.261 34.5561 146.224 34.3355 146.141 34.1517C146.068 33.9587 145.966 33.8025 145.828 33.683C145.7 33.5543 145.552 33.4624 145.387 33.4073C145.221 33.343 145.046 33.3154 144.871 33.3154C144.605 33.3154 144.347 33.3613 144.089 33.4532C143.832 33.5452 143.602 33.6922 143.39 33.8944V38.9583H141.651V32.0012H143.39V32.5158C143.51 32.4147 143.638 32.3136 143.786 32.2309C143.942 32.139 144.098 32.0655 144.264 32.0103C144.43 31.946 144.595 31.9001 144.77 31.8725C144.945 31.8449 145.111 31.8265 145.267 31.8265C145.617 31.8265 145.957 31.8817 146.288 31.992C146.611 32.1023 146.905 32.2769 147.153 32.5066C147.402 32.7364 147.614 33.0397 147.761 33.4073C147.917 33.7749 147.991 34.2161 147.991 34.7215V38.9583H148Z" fill="#21CCC3"/>
<path d="M140.353 35.3006C140.353 35.8244 140.261 36.3024 140.068 36.7527C139.875 37.1938 139.608 37.5798 139.277 37.9107C138.936 38.2323 138.541 38.4897 138.09 38.6827C137.639 38.8757 137.151 38.9676 136.636 38.9676C136.121 38.9676 135.642 38.8757 135.191 38.6827C134.74 38.4897 134.345 38.2323 134.013 37.9107C133.673 37.5798 133.415 37.1938 133.222 36.7527C133.029 36.3115 132.937 35.8244 132.937 35.3098C132.937 34.7951 133.038 34.3264 133.231 33.8853C133.425 33.4441 133.691 33.0489 134.032 32.7181C134.372 32.3872 134.759 32.1207 135.21 31.9369C135.661 31.7439 136.139 31.652 136.645 31.652C137.151 31.652 137.639 31.7439 138.099 31.9369C138.55 32.1299 138.946 32.378 139.286 32.7089C139.626 33.0305 139.884 33.4165 140.077 33.8669C140.271 34.3172 140.363 34.7951 140.363 35.3098L140.353 35.3006ZM138.614 35.3006C138.614 35.0065 138.559 34.7308 138.458 34.4734C138.357 34.2161 138.209 33.9955 138.035 33.8025C137.851 33.6095 137.648 33.4625 137.4 33.3522C137.16 33.2419 136.903 33.1868 136.627 33.1868C136.351 33.1868 136.102 33.2419 135.854 33.3522C135.615 33.4625 135.403 33.6095 135.219 33.8025C135.035 33.9955 134.897 34.2161 134.796 34.4734C134.694 34.7308 134.639 35.0065 134.639 35.3006C134.639 35.5947 134.694 35.8704 134.796 36.1277C134.897 36.3851 135.044 36.6056 135.219 36.7986C135.403 36.9916 135.605 37.1387 135.854 37.249C136.093 37.3593 136.351 37.4144 136.627 37.4144C136.903 37.4144 137.151 37.3593 137.4 37.249C137.639 37.1387 137.851 36.9916 138.035 36.7986C138.219 36.6056 138.357 36.3851 138.458 36.1277C138.559 35.8704 138.614 35.5947 138.614 35.3006Z" fill="#21CCC3"/>
<path d="M128.492 36.817C128.492 37.1662 128.41 37.4695 128.253 37.736C128.088 38.0025 127.885 38.2323 127.627 38.4069C127.37 38.5907 127.075 38.7286 126.753 38.8205C126.431 38.9124 126.109 38.9583 125.796 38.9583C125.263 38.9583 124.775 38.8572 124.324 38.6642C123.873 38.4712 123.487 38.1496 123.146 37.7176L124.195 36.6607C124.407 36.9272 124.646 37.1294 124.922 37.2765C125.198 37.4235 125.493 37.4971 125.806 37.4971C126.082 37.4971 126.302 37.4511 126.486 37.35C126.67 37.2489 126.753 37.1019 126.753 36.8997C126.753 36.6975 126.624 36.5137 126.367 36.3758C126.109 36.238 125.75 36.1001 125.281 35.9623C125.005 35.8795 124.738 35.7784 124.49 35.659C124.232 35.5303 124.002 35.3833 123.8 35.1994C123.597 35.0156 123.441 34.8134 123.321 34.5837C123.201 34.3539 123.137 34.0782 123.137 33.7749C123.137 33.4349 123.22 33.1316 123.376 32.8651C123.533 32.5985 123.735 32.3688 123.993 32.1942C124.25 32.0104 124.536 31.8725 124.858 31.7806C125.18 31.6887 125.502 31.6335 125.833 31.6335C126.901 31.6335 127.765 32.0379 128.446 32.8375L127.407 33.8852C127.204 33.6371 126.974 33.4441 126.716 33.297C126.459 33.15 126.174 33.0765 125.87 33.0765C125.769 33.0765 125.658 33.0948 125.539 33.1224C125.419 33.15 125.318 33.1867 125.217 33.2419C125.115 33.297 125.033 33.3614 124.968 33.4441C124.904 33.5268 124.876 33.6187 124.876 33.729C124.876 33.9128 124.996 34.0782 125.244 34.2069C125.493 34.3447 125.842 34.4826 126.302 34.6204C126.597 34.7123 126.882 34.8226 127.149 34.9605C127.416 35.0984 127.646 35.2546 127.848 35.4384C128.051 35.6222 128.207 35.8244 128.327 36.0542C128.446 36.2839 128.502 36.5413 128.502 36.8262L128.492 36.817Z" fill="#21CCC3"/>
<path d="M60.9704 36.1828C60.9704 36.5504 60.8968 36.9088 60.7496 37.2397C60.6023 37.5705 60.3907 37.8646 60.1239 38.122C59.857 38.3793 59.5441 38.5815 59.1761 38.7377C58.808 38.894 58.4031 38.9675 57.9615 38.9675C57.5658 38.9675 57.2069 38.9399 56.8941 38.8939C56.5812 38.848 56.2775 38.7653 56.0015 38.655C55.7254 38.5447 55.4586 38.4069 55.201 38.2414C54.9433 38.076 54.6765 37.8646 54.4096 37.6257L55.6702 36.2563C56.0383 36.5871 56.3972 36.8169 56.7468 36.9548C57.0965 37.0926 57.483 37.157 57.8878 37.157C58.0535 37.157 58.2099 37.1294 58.3663 37.0742C58.5136 37.0191 58.6424 36.9456 58.7528 36.8537C58.8632 36.7618 58.9552 36.6515 59.0197 36.532C59.0841 36.4125 59.1209 36.2747 59.1209 36.1276C59.1209 35.9714 59.0933 35.8335 59.0381 35.7049C58.9829 35.5854 58.8908 35.4659 58.7528 35.3464C58.6148 35.227 58.4215 35.1167 58.1823 34.9972C57.9339 34.8777 57.621 34.7399 57.2437 34.5928C56.9125 34.4641 56.5812 34.3079 56.2775 34.1425C55.9647 33.9771 55.6978 33.7657 55.4678 33.5267C55.2378 33.2878 55.0445 33.0121 54.9065 32.6904C54.7685 32.3687 54.6949 31.9919 54.6949 31.5508C54.6949 31.1096 54.7685 30.742 54.9249 30.3928C55.0813 30.0343 55.293 29.7403 55.569 29.4829C55.8359 29.2348 56.1579 29.0326 56.5168 28.8947C56.8757 28.7569 57.2713 28.6833 57.6854 28.6833C58.3847 28.6833 58.9828 28.7844 59.4613 28.9774C59.9398 29.1796 60.3723 29.4645 60.7404 29.8413L59.5073 31.1923C59.2773 30.9534 59.0197 30.7696 58.7436 30.6409C58.4584 30.5123 58.1271 30.4479 57.7498 30.4479C57.575 30.4479 57.4094 30.4755 57.2621 30.5306C57.1149 30.5858 56.9861 30.6685 56.8757 30.7604C56.7652 30.8523 56.6824 30.9626 56.618 31.0913C56.5536 31.2199 56.5168 31.3486 56.5168 31.4956C56.5168 31.6519 56.5444 31.7897 56.6088 31.9184C56.6732 32.0471 56.7744 32.1665 56.9217 32.286C57.0689 32.4055 57.2621 32.525 57.5014 32.6444C57.7406 32.7639 58.0443 32.8926 58.4031 33.0304C58.8632 33.2051 59.2497 33.3889 59.581 33.6002C59.9122 33.8024 60.1791 34.0322 60.3815 34.2803C60.5839 34.5285 60.7404 34.8042 60.8416 35.1167C60.9428 35.4291 60.9888 35.7692 60.9888 36.1644L60.9704 36.1828Z" fill="#15ABFF"/>
<path d="M77.5887 37.7359C77.239 38.1403 76.8065 38.4436 76.3096 38.6549C75.8127 38.8663 75.2882 38.9674 74.7453 38.9674C74.2393 38.9674 73.7608 38.8755 73.3099 38.6917C72.859 38.5079 72.4725 38.2506 72.1413 37.9289C71.81 37.6072 71.5524 37.2212 71.3591 36.7709C71.1659 36.3206 71.0739 35.8335 71.0739 35.3188C71.0739 34.8041 71.1659 34.3262 71.3591 33.8759C71.5524 33.4348 71.81 33.0396 72.1413 32.7179C72.4725 32.3871 72.859 32.1297 73.3099 31.9459C73.7608 31.7529 74.2392 31.661 74.7545 31.661C75.2698 31.661 75.7851 31.7529 76.2636 31.9459C76.7421 32.1389 77.1562 32.433 77.5151 32.8282L76.3464 34.023C76.1716 33.7932 75.9508 33.6002 75.7023 33.444C75.4447 33.2877 75.141 33.2142 74.7821 33.2142C74.5153 33.2142 74.2669 33.2693 74.0276 33.3796C73.7884 33.4899 73.5859 33.6462 73.4019 33.83C73.2179 34.023 73.0798 34.2435 72.9694 34.5009C72.8682 34.7582 72.813 35.0339 72.813 35.3188C72.813 35.6037 72.8682 35.8794 72.9694 36.1368C73.0706 36.3941 73.2179 36.6147 73.3927 36.8077C73.5675 37.0007 73.7792 37.1477 74.0184 37.258C74.2577 37.3683 74.5153 37.4234 74.7821 37.4234C75.1318 37.4234 75.4447 37.3407 75.7207 37.1753C76.006 37.0099 76.2268 36.7985 76.3924 36.5411L77.5979 37.7451L77.5887 37.7359Z" fill="#15ABFF"/>
<path d="M69.6752 35.2913C69.6752 35.4016 69.6752 35.521 69.6568 35.6405C69.6476 35.76 69.6292 35.8887 69.6108 36.0173H64.0438C64.1082 36.2195 64.2002 36.4125 64.3106 36.5871C64.4302 36.7709 64.5683 36.9272 64.7431 37.0558C64.9087 37.1845 65.102 37.2948 65.3136 37.3683C65.5252 37.4418 65.7645 37.4786 66.0221 37.4786C66.335 37.4786 66.6479 37.4235 66.9607 37.3132C67.2736 37.2029 67.5312 37.0558 67.7429 36.872L68.8379 37.9657C68.3594 38.3241 67.8809 38.5815 67.4208 38.7285C66.9607 38.8756 66.473 38.9491 65.9577 38.9491C65.4424 38.9491 64.9455 38.8572 64.4947 38.6642C64.0438 38.4712 63.6481 38.2138 63.3168 37.883C62.9856 37.5521 62.7187 37.1661 62.5255 36.725C62.3323 36.2838 62.2402 35.8059 62.2402 35.3005C62.2402 34.795 62.3323 34.3171 62.5255 33.8759C62.7187 33.4348 62.9856 33.0396 63.3168 32.7179C63.6573 32.3871 64.0438 32.1298 64.4947 31.9368C64.9455 31.7438 65.424 31.6519 65.9393 31.6519C66.4546 31.6519 66.8963 31.7438 67.3472 31.9184C67.7981 32.1022 68.1937 32.3503 68.5434 32.672C68.8931 32.9937 69.1599 33.3797 69.3623 33.8208C69.5648 34.2619 69.666 34.7582 69.666 35.2913H69.6752ZM67.8533 34.6204C67.7152 34.1792 67.476 33.8208 67.1263 33.5543C66.7767 33.2878 66.381 33.1499 65.9393 33.1499C65.4976 33.1499 65.1112 33.2878 64.7707 33.5543C64.421 33.8208 64.1818 34.1792 64.0438 34.6204H67.8533Z" fill="#15ABFF"/>
<path d="M99.6175 35.2913C99.6175 35.4016 99.6175 35.521 99.5991 35.6405C99.5899 35.76 99.5715 35.8887 99.5531 36.0173H93.9861C94.0505 36.2195 94.1425 36.4125 94.2529 36.5871C94.3725 36.7709 94.5106 36.9272 94.6762 37.0558C94.8418 37.1845 95.0351 37.2948 95.2467 37.3683C95.4583 37.4418 95.6976 37.4786 95.9552 37.4786C96.2681 37.4786 96.581 37.4235 96.8938 37.3132C97.2067 37.2029 97.4643 37.0558 97.676 36.872L98.771 37.9657C98.2925 38.3241 97.814 38.5815 97.3539 38.7285C96.8938 38.8756 96.4061 38.9491 95.8908 38.9491C95.3755 38.9491 94.8786 38.8572 94.4278 38.6642C93.9769 38.4712 93.5812 38.2138 93.2499 37.883C92.9187 37.5521 92.6518 37.1661 92.4586 36.725C92.2654 36.2838 92.1733 35.8059 92.1733 35.3005C92.1733 34.795 92.2654 34.3171 92.4586 33.8759C92.6518 33.4348 92.9187 33.0396 93.2499 32.7179C93.5904 32.3871 93.9769 32.1298 94.4278 31.9368C94.8786 31.7438 95.3571 31.6519 95.8724 31.6519C96.3877 31.6519 96.8294 31.7438 97.2803 31.9184C97.7312 32.1022 98.1268 32.3503 98.4765 32.672C98.8262 32.9937 99.093 33.3797 99.2955 33.8208C99.4979 34.2619 99.5991 34.7582 99.5991 35.2913H99.6175ZM97.7956 34.6204C97.6575 34.1792 97.4183 33.8208 97.0686 33.5543C96.719 33.2878 96.3233 33.1499 95.8816 33.1499C95.4399 33.1499 95.0535 33.2878 94.713 33.5543C94.3633 33.8208 94.1241 34.1792 93.9861 34.6204H97.7956Z" fill="#15ABFF"/>
<path d="M91.6765 32.7272L90.7471 34.1977C90.5815 34.0139 90.3882 33.8484 90.1858 33.7106C89.9834 33.5727 89.7717 33.4992 89.5693 33.4992C89.4589 33.4992 89.33 33.5268 89.2012 33.5819C89.0724 33.6371 88.9436 33.7198 88.8239 33.8392C88.7043 33.9587 88.6123 34.115 88.5295 34.3172C88.4467 34.5102 88.4099 34.7583 88.4099 35.0432V38.9675H86.6707V32.0103H88.4099V32.7548C88.6215 32.4607 88.8515 32.2309 89.1 32.0655C89.3484 31.9001 89.6337 31.8265 89.9465 31.8265C90.2594 31.8265 90.5539 31.9093 90.8483 32.0747C91.1428 32.2401 91.4188 32.4607 91.6765 32.7272Z" fill="#15ABFF"/>
<path d="M85.2721 38.7929H83.533V38.2598C83.4225 38.3701 83.2937 38.4712 83.1373 38.5539C82.9901 38.6366 82.8336 38.7102 82.668 38.7745C82.5024 38.8388 82.3367 38.8848 82.1619 38.9123C81.9871 38.9399 81.8306 38.9583 81.6742 38.9583C81.3246 38.9583 80.9841 38.9032 80.6528 38.7929C80.3308 38.6826 80.0363 38.508 79.7879 38.2782C79.5394 38.0484 79.337 37.7452 79.1898 37.3775C79.0425 37.0099 78.9689 36.5688 78.9689 36.0633V31.8357H80.708V35.9806C80.708 36.2287 80.7448 36.4493 80.8185 36.6331C80.8921 36.8261 80.9933 36.9823 81.1221 37.1018C81.2509 37.2305 81.389 37.3224 81.5546 37.3775C81.7202 37.4419 81.8859 37.4694 82.0699 37.4694C82.6312 37.4694 83.1189 37.2764 83.5238 36.8904V31.8357H85.2629V38.7929H85.2721Z" fill="#15ABFF"/>
<path d="M105.304 32.0287C105.304 33.4624 106.464 34.6204 107.899 34.6204C106.464 34.6204 105.304 35.7784 105.304 37.2121C105.304 35.7784 104.145 34.6204 102.709 34.6204C104.145 34.6204 105.304 33.4624 105.304 32.0287Z" fill="#15ABFF"/>
<path d="M131.704 8.06921L131.649 10.7988H138.265V23.4724H141.329V10.7436H148V8.06921H131.704Z" fill="#005AA9"/>
<path d="M117.809 8.01404H107.365V23.4724H110.595V17.8478H115.463L117.818 17.7927C122.686 17.8478 123.616 14.622 123.616 12.9861C123.616 11.3502 122.797 8.01404 117.818 8.01404H117.809ZM117.478 15.1183H110.586V10.6425H117.478C119.392 10.6977 120.321 11.7362 120.321 12.8298C120.377 14.1441 119.447 15.0723 117.478 15.1275V15.1183Z" fill="#005AA9"/>
<path d="M96.1485 19.7595L85.6493 8.06921H81.8214V23.4724H84.8856V11.8373L95.4399 23.4724H99.1574V8.06921H96.1485V19.7595Z" fill="#005AA9"/>
<path d="M64.053 20.2006L57.8142 8.01404H54.474L62.3507 23.5275H65.6357L73.6227 8.06918H70.3377L64.053 20.2006Z" fill="#005AA9"/>
</g>
<defs>
<clipPath id="clip0_2183_4194">
<rect width="148" height="47" fill="white"/>
</clipPath>
</defs>
</svg>
