<svg width="9" height="16" viewBox="0 0 9 16" fill="none" xmlns="http://www.w3.org/2000/svg">
<path d="M0.500044 1.1875C0.500044 1.5672 0.84257 1.875 1.2651 1.875C1.68763 1.875 2.03015 1.5672 2.03015 1.1875C2.03015 0.807804 1.68763 0.5 1.2651 0.5C0.84257 0.5 0.500044 0.807804 0.500044 1.1875Z" fill="#64748B" stroke="#64748B" stroke-linecap="round" stroke-linejoin="round"/>
<path d="M0.500044 5.5625C0.500044 5.9422 0.84257 6.25 1.2651 6.25C1.68763 6.25 2.03015 5.9422 2.03015 5.5625C2.03015 5.1828 1.68763 4.875 1.2651 4.875C0.84257 4.875 0.500044 5.1828 0.500044 5.5625Z" fill="#64748B" stroke="#64748B" stroke-linecap="round" stroke-linejoin="round"/>
<path d="M0.500044 9.9375C0.500044 10.3172 0.84257 10.625 1.2651 10.625C1.68763 10.625 2.03015 10.3172 2.03015 9.9375C2.03015 9.5578 1.68763 9.25 1.2651 9.25C0.84257 9.25 0.500044 9.5578 0.500044 9.9375Z" fill="#64748B" stroke="#64748B" stroke-linecap="round" stroke-linejoin="round"/>
<path d="M0.500044 14.3125C0.500044 14.6922 0.84257 15 1.2651 15C1.68763 15 2.03015 14.6922 2.03015 14.3125C2.03015 13.9328 1.68763 13.625 1.2651 13.625C0.84257 13.625 0.500044 13.9328 0.500044 14.3125Z" fill="#64748B" stroke="#64748B" stroke-linecap="round" stroke-linejoin="round"/>
<path d="M6.06413 1.1875C6.06413 1.5672 6.40666 1.875 6.82918 1.875C7.25171 1.875 7.59424 1.5672 7.59424 1.1875C7.59424 0.807804 7.25171 0.5 6.82918 0.5C6.40666 0.5 6.06413 0.807804 6.06413 1.1875Z" fill="#64748B" stroke="#64748B" stroke-linecap="round" stroke-linejoin="round"/>
<path d="M6.06413 5.5625C6.06413 5.9422 6.40666 6.25 6.82918 6.25C7.25171 6.25 7.59424 5.9422 7.59424 5.5625C7.59424 5.1828 7.25171 4.875 6.82918 4.875C6.40666 4.875 6.06413 5.1828 6.06413 5.5625Z" fill="#64748B" stroke="#64748B" stroke-linecap="round" stroke-linejoin="round"/>
<path d="M6.06413 9.9375C6.06413 10.3172 6.40666 10.625 6.82918 10.625C7.25171 10.625 7.59424 10.3172 7.59424 9.9375C7.59424 9.5578 7.25171 9.25 6.82918 9.25C6.40666 9.25 6.06413 9.5578 6.06413 9.9375Z" fill="#64748B" stroke="#64748B" stroke-linecap="round" stroke-linejoin="round"/>
<path d="M6.06413 14.3125C6.06413 14.6922 6.40666 15 6.82918 15C7.25171 15 7.59424 14.6922 7.59424 14.3125C7.59424 13.9328 7.25171 13.625 6.82918 13.625C6.40666 13.625 6.06413 13.9328 6.06413 14.3125Z" fill="#64748B" stroke="#64748B" stroke-linecap="round" stroke-linejoin="round"/>
</svg>
