<svg width="20" height="20" viewBox="0 0 20 20" fill="none" xmlns="http://www.w3.org/2000/svg">
<path d="M12.9995 10.6745L12.5903 10.046L12.5799 10.0528L12.5697 10.0599L12.9995 10.6745ZM12.9995 9.52771L12.5548 10.1316L12.5883 10.1563L12.6243 10.1771L12.9995 9.52771ZM8.40335 6.1433L8.84806 5.53937L8.8269 5.52379L8.8047 5.50972L8.40335 6.1433ZM7.43979 6.64881L8.18991 6.64663L8.18964 6.6335L7.43979 6.64881ZM7.45907 13.2969L6.70907 13.2991L6.70913 13.3203L6.71039 13.3415L7.45907 13.2969ZM8.45795 13.8509L8.82112 14.5071L8.85555 14.4881L8.8878 14.4655L8.45795 13.8509ZM5 2V2.75H15V2V1.25H5V2ZM18 5H17.25V15H18H18.75V5H18ZM15 18V17.25H5V18V18.75H15V18ZM2 15H2.75V5H2H1.25V15H2ZM5 18V17.25C3.75736 17.25 2.75 16.2426 2.75 15H2H1.25C1.25 17.0711 2.92893 18.75 5 18.75V18ZM18 15H17.25C17.25 16.2426 16.2426 17.25 15 17.25V18V18.75C17.0711 18.75 18.75 17.0711 18.75 15H18ZM15 2V2.75C16.2426 2.75 17.25 3.75736 17.25 5H18H18.75C18.75 2.92893 17.0711 1.25 15 1.25V2ZM5 2V1.25C2.92893 1.25 1.25 2.92893 1.25 5H2H2.75C2.75 3.75736 3.75736 2.75 5 2.75V2ZM12.9995 10.6745L13.4087 11.3031C13.7639 11.0719 14.1904 10.6734 14.1895 10.0835C14.1887 9.47686 13.7411 9.09004 13.3748 8.87835L12.9995 9.52771L12.6243 10.1771C12.6686 10.2027 12.6988 10.2242 12.718 10.2399C12.7374 10.2557 12.7423 10.2627 12.7393 10.2589C12.736 10.2547 12.7232 10.2373 12.7111 10.2058C12.6986 10.173 12.6896 10.1318 12.6896 10.0856C12.6895 10.0396 12.6983 10.0011 12.7085 9.9733C12.7184 9.94668 12.7278 9.93419 12.7271 9.93523C12.7262 9.93647 12.7171 9.94818 12.6941 9.96866C12.6712 9.989 12.6376 10.0152 12.5903 10.046L12.9995 10.6745ZM12.9995 9.52771L13.4442 8.92378L8.84806 5.53937L8.40335 6.1433L7.95864 6.74724L12.5548 10.1316L12.9995 9.52771ZM8.40335 6.1433L8.8047 5.50972C8.42792 5.27105 7.90785 5.13985 7.42079 5.36726C6.89231 5.61402 6.6794 6.14737 6.68995 6.66411L7.43979 6.64881L8.18964 6.6335C8.18842 6.57385 8.20044 6.57513 8.18263 6.60922C8.16189 6.6489 8.11874 6.69684 8.0554 6.72641C7.99673 6.7538 7.95391 6.75032 7.9459 6.74919C7.9389 6.74821 7.9594 6.74989 8.00201 6.77688L8.40335 6.1433ZM7.43979 6.64881L6.6898 6.65098L6.70907 13.2991L7.45907 13.2969L8.20906 13.2947L8.18979 6.64663L7.43979 6.64881ZM7.45907 13.2969L6.71039 13.3415C6.73628 13.7764 6.8863 14.3323 7.40645 14.6101C7.91886 14.8838 8.45825 14.7079 8.82112 14.5071L8.45795 13.8509L8.09479 13.1947C8.05237 13.2182 8.01949 13.2326 7.99609 13.2411C7.97255 13.2497 7.96218 13.251 7.96386 13.2508C7.96585 13.2505 7.98266 13.2484 8.01063 13.2525C8.03966 13.2568 8.07563 13.267 8.1131 13.287C8.15068 13.3071 8.1801 13.3318 8.20101 13.3552C8.22119 13.3777 8.22957 13.3945 8.23104 13.3976C8.23234 13.4004 8.22784 13.3915 8.22223 13.3664C8.21665 13.3414 8.21082 13.3041 8.20774 13.2523L7.45907 13.2969ZM8.45795 13.8509L8.8878 14.4655L13.4294 11.2891L12.9995 10.6745L12.5697 10.0599L8.0281 13.2363L8.45795 13.8509Z" fill="black"/>
</svg>
